<svg id="visual" viewBox="0 0 900 600" width="900" height="600" xmlns="http://www.w3.org/2000/svg" xmlns:xlink="http://www.w3.org/1999/xlink" version="1.1"><rect x="0" y="0" width="900" height="600" fill="#ffffff"></rect><path d="M619 600L636.3 585.7C653.7 571.3 688.3 542.7 702 514.2C715.7 485.7 708.3 457.3 684 428.8C659.7 400.3 618.3 371.7 583.3 343C548.3 314.3 519.7 285.7 500.5 257C481.3 228.3 471.7 199.7 465.3 171.2C459 142.7 456 114.3 457 85.8C458 57.3 463 28.7 465.5 14.3L468 0L900 0L900 14.3C900 28.7 900 57.3 900 85.8C900 114.3 900 142.7 900 171.2C900 199.7 900 228.3 900 257C900 285.7 900 314.3 900 343C900 371.7 900 400.3 900 428.8C900 457.3 900 485.7 900 514.2C900 542.7 900 571.3 900 585.7L900 600Z" fill="#9E7A59" stroke-linecap="round" stroke-linejoin="miter"></path></svg>